HIERARCHY
ROOT joint_Root
{
  OFFSET 0 0 0
  CHANNELS 6 Xposition Yposition Zposition Zrotation Xrotation Yrotation
  JOINT Hips
  {
    OFFSET 0 93.9241 -3
    CHANNELS 6 Xposition Yposition Zposition Zrotation Xrotation Yrotation
    JOINT Spine
    {
      OFFSET 15.7357 0 0
      CHANNELS 6 Xposition Yposition Zposition Zrotation Xrotation Yrotation
      JOINT Chest
      {
        OFFSET 8.98455 -0.406207 0
        CHANNELS 6 Xposition Yposition Zposition Zrotation Xrotation Yrotation
        JOINT Neck
        {
          OFFSET 16.3773 0 0
          CHANNELS 6 Xposition Yposition Zposition Zrotation Xrotation Yrotation
          JOINT Head
          {
            OFFSET 6.45672 0 0
            CHANNELS 6 Xposition Yposition Zposition Zrotation Xrotation Yrotation
            End Site
            {
              OFFSET 0 0 0
            }
          }
        }
        JOINT Shoulder_L
        {
          OFFSET 12.9942 -0.242716 4.98039
          CHANNELS 6 Xposition Yposition Zposition Zrotation Xrotation Yrotation
          JOINT UpperArm_L
          {
            OFFSET 5.34809 0 0
            CHANNELS 6 Xposition Yposition Zposition Zrotation Xrotation Yrotation
            JOINT LowerArm_L
            {
              OFFSET 24.3286 1.87007e-05 0
              CHANNELS 6 Xposition Yposition Zposition Zrotation Xrotation Yrotation
              JOINT Hand_L
              {
                OFFSET 22.2916 0 0
                CHANNELS 6 Xposition Yposition Zposition Zrotation Xrotation Yrotation
                End Site
                {
                  OFFSET 0 0 0
                }
              }
            }
          }
        }
        JOINT Shoulder_R
        {
          OFFSET 12.9945 -0.242716 -4.98039
          CHANNELS 6 Xposition Yposition Zposition Zrotation Xrotation Yrotation
          JOINT UpperArm_R
          {
            OFFSET -5.34813 0 0
            CHANNELS 6 Xposition Yposition Zposition Zrotation Xrotation Yrotation
            JOINT LowerArm_R
            {
              OFFSET -24.3289 0.000322201 0
              CHANNELS 6 Xposition Yposition Zposition Zrotation Xrotation Yrotation
              JOINT Hand_R
              {
                OFFSET -22.2915 -0.000108084 0
                CHANNELS 6 Xposition Yposition Zposition Zrotation Xrotation Yrotation
                End Site
                {
                  OFFSET 0 0 0
                }
              }
            }
          }
        }
      }
    }
    JOINT UpperLeg_L
    {
      OFFSET -2.19248 -6.46944 0
      CHANNELS 6 Xposition Yposition Zposition Zrotation Xrotation Yrotation
      JOINT LowerLeg_L
      {
        OFFSET 39.0811 0 -1.23785e-05
        CHANNELS 6 Xposition Yposition Zposition Zrotation Xrotation Yrotation
        JOINT Foot_L
        {
          OFFSET 40.9854 0 -1.26872e-05
          CHANNELS 6 Xposition Yposition Zposition Zrotation Xrotation Yrotation
          JOINT Toes_L
          {
            OFFSET 11.7543 0 0
            CHANNELS 6 Xposition Yposition Zposition Zrotation Xrotation Yrotation
            End Site
            {
              OFFSET 0 0 0
            }
          }
        }
      }
    }
    JOINT UpperLeg_R
    {
      OFFSET -2.19251 6.46944 0
      CHANNELS 6 Xposition Yposition Zposition Zrotation Xrotation Yrotation
      JOINT LowerLeg_R
      {
        OFFSET -39.0811 -0.00228153 -0.0401928
        CHANNELS 6 Xposition Yposition Zposition Zrotation Xrotation Yrotation
        JOINT Foot_R
        {
          OFFSET -40.9854 0 0
          CHANNELS 6 Xposition Yposition Zposition Zrotation Xrotation Yrotation
          JOINT Toes_R
          {
            OFFSET -11.7543 0 0
            CHANNELS 6 Xposition Yposition Zposition Zrotation Xrotation Yrotation
            End Site
            {
              OFFSET 0 0 0
            }
          }
        }
      }
    }
  }
}
MOTION
Frames:	7
Frame Time:	0.0333333
0 0 0 0 0 -0 4.53548 88.14 35.1355 95.4926 1.41081 -3.62195 15.7357 5.1072e-06 -5.51765e-07 102.074 80.8987 -104.004 8.98455 -0.406207 -4.3199e-07 10.1161 3.74371 -4.19043 16.3773 -1.3905e-06 -6.99897e-07 -10.7888 -4.34169 1.32267 6.45672 -1.25837e-06 -1.02172e-07 0.74012 -9.09222 4.58789 12.9942 -0.242716 4.98039 -89.9844 -0.141276 -98.6251 5.34809 -7.22636e-06 -6.2814e-07 -67.9177 -7.12589 34.8818 24.3286 1.87007e-05 4.90208e-06 9.69047 9.95583 -44.6451 22.2916 -9.88446e-07 4.63217e-06 28.2579 5.33115 -0.819853 12.9945 -0.242716 -4.98039 90.0126 6.33114 -105.115 -5.34813 -1.25947e-06 -3.79883e-06 -66.7446 0.0566419 -1.48535 -24.3289 0.000322201 -8.65921e-06 -0.777206 -0.587974 -53.3755 -22.2915 -0.000108084 -4.47941e-06 43.7814 5.66518 -16.8054 -2.19248 -6.46944 -1.22534e-07 170.345 1.46083 -30.3084 39.0811 -6.73843e-06 -1.23785e-05 0.171309 -0.177248 38.1484 40.9854 -6.48686e-06 -1.26872e-05 5.55055 2.30776 -61.6495 11.7543 -2.30145e-07 3.05095e-06 0.0910249 -0.102712 -17.5776 -2.19251 6.46944 -1.45247e-06 175.145 6.85608 167.935 -39.0811 -0.00228153 -0.0401928 -0.177679 0.0758043 65.8014 -40.9854 7.72618e-06 5.99936e-06 11.0926 -11.0424 -20.5658 -11.7543 -5.6619e-06 -5.58687e-06 0.503853 -0.561026 -20.7712 
0 0 0 0 0 -0 4.58151 89.7496 41.2219 94.4721 0.499325 -3.77924 15.7357 5.1072e-06 -5.51765e-07 98.9644 81.0134 -100.41 8.98455 -0.406207 -4.3199e-07 10.0329 2.75435 -3.13242 16.3773 -1.3905e-06 -6.99897e-07 -10.1558 -3.30887 0.694352 6.45672 -1.25837e-06 -1.02172e-07 1.73306 -8.61654 4.23407 12.9942 -0.242716 4.98039 -90.2829 2.20625 -97.6966 5.34809 -7.22636e-06 -6.2814e-07 -71.2221 -0.712955 19.1481 24.3286 1.87007e-05 4.90208e-06 9.01489 9.43924 -44.0498 22.2916 -9.88446e-07 4.63217e-06 27.0337 5.34962 -1.3717 12.9945 -0.242716 -4.98039 90.0554 7.24701 -105.439 -5.34813 -1.25947e-06 -3.79883e-06 -69.0421 -0.624579 6.77262 -24.3289 0.000322201 -8.65921e-06 2.93099 4.71706 -32.0579 -22.2915 -0.000108084 -4.47941e-06 40.1205 5.67833 -19.56 -2.19248 -6.46944 -1.22534e-07 171.239 -1.42031 -23.6383 39.0811 -6.73843e-06 -1.23785e-05 0.201335 -0.248426 33.8205 40.9854 -6.48686e-06 -1.26872e-05 6.07369 4.06085 -64.515 11.7543 -2.30145e-07 3.05095e-06 0.151987 -0.173569 -18.2587 -2.19251 6.46944 -1.45247e-06 177.847 4.97881 157.769 -39.0811 -0.00228153 -0.0401928 -0.455269 0.129254 73.0737 -40.9854 7.72618e-06 5.99936e-06 14.2474 -15.1524 -28.0137 -11.7543 -5.6619e-06 -5.58687e-06 0.528486 -0.590667 -20.9855 
0 0 0 0 0 -0 4.07255 91.1126 47.1321 91.8807 1.56418 -4.7083 15.7357 5.1072e-06 -5.51765e-07 95.6295 81.1918 -96.0128 8.98455 -0.406207 -4.3199e-07 9.77455 1.71093 -0.912216 16.3773 -1.3905e-06 -6.99897e-07 -9.24788 -3.01529 0.206995 6.45672 -1.25837e-06 -1.02172e-07 1.13275 -7.99938 4.88397 12.9942 -0.242716 4.98039 -90.4175 3.50357 -98.2027 5.34809 -7.22636e-06 -6.2814e-07 -71.2519 3.79835 3.95176 24.3286 1.87007e-05 4.90208e-06 11.6193 10.4059 -48.6857 22.2916 -9.88446e-07 4.63217e-06 26.4226 5.3768 -2.20041 12.9945 -0.242716 -4.98039 89.9493 7.49288 -104.61 -5.34813 -1.25947e-06 -3.79883e-06 -70.9147 2.28452 18.3348 -24.3289 0.000322201 -8.65921e-06 2.25728 5.08217 -23.9849 -22.2915 -0.000108084 -4.47941e-06 37.5118 5.6818 -20.6063 -2.19248 -6.46944 -1.22534e-07 174.48 -3.57956 -17.5276 39.0811 -6.73843e-06 -1.23785e-05 0.157407 -0.23446 28.6481 40.9854 -6.48686e-06 -1.26872e-05 6.32312 7.27409 -66.6407 11.7543 -2.30145e-07 3.05095e-06 0.195242 -0.22491 -18.7479 -2.19251 6.46944 -1.45247e-06 -177.765 4.6361 148.684 -39.0811 -0.00228153 -0.0401928 -0.504874 0.141809 73.3593 -40.9854 7.72618e-06 5.99936e-06 14.4759 -19.5767 -31.9391 -11.7543 -5.6619e-06 -5.58687e-06 0.523344 -0.584447 -20.9406 
0 0 0 0 0 -0 3.35035 92 52.8604 89.5732 4.12981 -6.41172 15.7357 5.1072e-06 -5.51765e-07 89.8066 81.6436 -89.2685 8.98455 -0.406207 -4.3199e-07 8.9471 -0.0506018 1.07924 16.3773 -1.3905e-06 -6.99897e-07 -8.52735 -3.50754 0.186173 6.45672 -1.25837e-06 -1.02172e-07 0.832171 -6.60518 5.87137 12.9942 -0.242716 4.98039 -90.1693 1.86199 -99.822 5.34809 -7.22636e-06 -6.2814e-07 -71.291 6.00691 -10.0068 24.3286 1.87007e-05 4.90208e-06 15.8246 10.2938 -57.7635 22.2916 -9.88446e-07 4.63217e-06 26.7368 5.30822 -0.156401 12.9945 -0.242716 -4.98039 89.6732 5.8228 -101.773 -5.34813 -1.25947e-06 -3.79883e-06 -75.4622 5.84835 29.5474 -24.3289 0.000322201 -8.65921e-06 1.54272 3.65585 -22.9261 -22.2915 -0.000108084 -4.47941e-06 36.3125 5.68159 -21.2851 -2.19248 -6.46944 -1.22534e-07 178.011 -3.05189 -12.1672 39.0811 -6.73843e-06 -1.23785e-05 0.0963656 -0.185796 22.6242 40.9854 -6.48686e-06 -1.26872e-05 5.87572 9.45074 -67.8133 11.7543 -2.30145e-07 3.05095e-06 0.228622 -0.265128 -19.1287 -2.19251 6.46944 -1.45247e-06 -173.932 4.34606 141.18 -39.0811 -0.00228153 -0.0401928 -0.460301 0.172622 68.0529 -40.9854 7.72618e-06 5.99936e-06 13.3027 -21.7341 -37.1654 -11.7543 -5.6619e-06 -5.58687e-06 0.491835 -0.546632 -20.6669 
0 0 0 0 0 -0 2.64633 92.294 58.4035 88.296 6.35051 -8.72221 15.7357 5.1072e-06 -5.51765e-07 81.1615 82.2561 -79.992 8.98455 -0.406207 -4.3199e-07 7.56803 -2.37246 2.49385 16.3773 -1.3905e-06 -6.99897e-07 -8.35067 -3.49662 -0.14149 6.45672 -1.25837e-06 -1.02172e-07 1.04736 -4.59926 5.88474 12.9942 -0.242716 4.98039 -89.9481 -0.902779 -101.667 5.34809 -7.22636e-06 -6.2814e-07 -71.5281 4.95012 -21.2505 24.3286 1.87007e-05 4.90208e-06 18.229 7.15533 -69.2827 22.2916 -9.88446e-07 4.63217e-06 23.8578 5.22277 2.16383 12.9945 -0.242716 -4.98039 89.6476 3.37887 -99.0313 -5.34813 -1.25947e-06 -3.79883e-06 -78.6226 5.6033 41.0465 -24.3289 0.000322201 -8.65921e-06 -0.0319871 -0.0561044 -26.8819 -22.2915 -0.000108084 -4.47941e-06 35.4597 5.68124 -22.0746 -2.19248 -6.46944 -1.22534e-07 -179.388 -2.2885 -7.23542 39.0811 -6.73843e-06 -1.23785e-05 0.0455654 -0.136077 15.5478 40.9854 -6.48686e-06 -1.26872e-05 5.10976 11.1191 -68.1772 11.7543 -2.30145e-07 3.05095e-06 0.215184 -0.248851 -18.9749 -2.19251 6.46944 -1.45247e-06 -172.225 2.83307 135.584 -39.0811 -0.00228153 -0.0401928 -0.34451 0.203485 57.5088 -40.9854 7.72618e-06 5.99936e-06 11.9333 -22.1439 -41.4427 -11.7543 -5.6619e-06 -5.58687e-06 0.510871 -0.569432 -20.8321 
0 0 0 0 0 -0 2.09715 92.0304 64.1511 88.276 7.24572 -9.79363 15.7357 5.1072e-06 -5.51765e-07 72.7865 82.2563 -71.5903 8.98455 -0.406207 -4.3199e-07 7.09382 -4.57427 2.67456 16.3773 -1.3905e-06 -6.99897e-07 -8.56919 -2.99992 -0.421754 6.45672 -1.25837e-06 -1.02172e-07 0.821944 -2.46154 5.49078 12.9942 -0.242716 4.98039 -89.8444 -3.53322 -102.476 5.34809 -7.22636e-06 -6.2814e-07 -70.678 2.69477 -30.9145 24.3286 1.87007e-05 4.90208e-06 20.5928 3.38055 -81.0698 22.2916 -9.88446e-07 4.63217e-06 21.6625 5.13871 4.21215 12.9945 -0.242716 -4.98039 89.8314 1.26275 -97.3813 -5.34813 -1.25947e-06 -3.79883e-06 -79.733 3.84082 51.2652 -24.3289 0.000322201 -8.65921e-06 -1.05946 -1.75954 -31.0243 -22.2915 -0.000108084 -4.47941e-06 36.8156 5.67973 -22.7866 -2.19248 -6.46944 -1.22533e-07 -178.162 -3.71406 -0.338034 39.0811 -6.73843e-06 -1.23785e-05 0.0232252 -0.165875 7.30179 40.9854 -6.48686e-06 -1.26872e-05 4.37058 13.7458 -66.7266 11.7543 -2.30145e-07 3.05095e-06 0.220429 -0.255195 -19.0349 -2.19251 6.46944 -1.45247e-06 -173.118 0.867767 134.962 -39.0811 -0.00228153 -0.0401928 -0.186306 0.190849 41.2499 -40.9854 7.72618e-06 5.99936e-06 9.84332 -20.7848 -44.1023 -11.7543 -5.6619e-06 -5.58687e-06 0.483931 -0.537209 -20.5984 
0 0 0 0 0 -0 1.64445 91.151 70.589 88.8727 8.01121 -9.56731 15.7357 5.1072e-06 -5.51765e-07 65.8077 81.6684 -64.9635 8.98455 -0.406207 -4.3199e-07 7.5248 -6.8043 2.13629 16.3773 -1.3905e-06 -6.99897e-07 -8.90181 -2.40199 -0.153084 6.45672 -1.25837e-06 -1.02172e-07 0.304526 -0.763153 5.33269 12.9942 -0.242716 4.98039 -89.7869 -5.09638 -102.603 5.34809 -7.22636e-06 -6.2814e-07 -67.8942 0.407034 -38.8323 24.3286 1.87007e-05 4.90208e-06 22.8331 -0.237422 -90.5631 22.2916 -9.88446e-07 4.63217e-06 23.9003 5.13481 4.33465 12.9945 -0.242716 -4.98039 90.0811 -0.59972 -97.2868 -5.34813 -1.25947e-06 -3.79883e-06 -80.4504 1.34713 58.7542 -24.3289 0.000322201 -8.65921e-06 -1.83962 -2.84634 -32.8848 -22.2915 -0.000108084 -4.47941e-06 37.569 5.67893 -23.0314 -2.19248 -6.46944 -1.22534e-07 -177.564 -2.77324 3.55911 39.0811 -6.73843e-06 -1.23785e-05 0.0318325 -0.209006 8.02719 40.9854 -6.48686e-06 -1.26872e-05 4.69854 14.156 -66.3653 11.7543 -2.30145e-07 3.05095e-06 0.372728 -0.495778 -23.0841 -2.19251 6.46944 -1.45247e-06 -175.604 -0.917516 140.212 -39.0811 -0.00228153 -0.0401928 -0.0540001 0.120327 19.6123 -40.9854 7.72618e-06 5.99936e-06 7.15099 -17.082 -46.2035 -11.7543 -5.6619e-06 -5.58687e-06 0.428002 -0.471114 -20.1167 
